<svg width="59" height="61" viewBox="0 0 59 61" fill="none" xmlns="http://www.w3.org/2000/svg">
<rect width="59" height="61" fill="white"/>
<g clip-path="url(#clip0)">
<path d="M53.1515 35.3697C53.6652 34.9678 53.9778 34.3871 54.0002 33.7395C54.0225 33.0918 53.7992 32.4665 53.3525 32.0199L28.6304 7.29772C28.1614 6.85107 27.5361 6.60541 26.9108 6.65007C26.2854 6.69474 25.6825 7.00739 25.2805 7.52104L14.5385 21.3226L11.4566 24.4045C8.97771 26.8834 8.97771 30.9256 11.4566 33.4045L14.8512 36.799L6.94545 44.7048C5.20351 46.4467 5.20351 49.2829 6.94545 51.0249L9.62536 53.7048C11.3673 55.4467 14.2035 55.4467 15.9455 53.7048L23.8512 45.7991L27.2458 49.1936C29.7247 51.6725 33.7669 51.6725 36.2458 49.1936L39.3277 46.1117L53.1515 35.3697ZM35.4418 19.4913L32.0473 22.8858L34.7272 25.5658L38.1217 22.1712L41.6056 25.6551L35.0621 32.1985L37.7421 34.8784L44.2855 28.335L49.3997 33.4491L38.211 42.1588L18.4914 22.4392L27.2011 11.2506L35.4418 19.4913ZM12.7966 51.4939L9.15637 47.8537L17.5311 39.4789L21.1713 43.1192L12.7966 51.4939ZM33.5659 46.5137C32.5609 47.5187 30.9306 47.5187 29.9257 46.5137L14.1365 30.7246C13.1316 29.7196 13.1316 28.0893 14.1365 27.0844L15.9455 25.2754L35.3748 44.7048L33.5659 46.5137Z" fill="#BF4545"/>
</g>
<defs>
<clipPath id="clip0">
<rect width="48.35" height="48.35" fill="white" transform="translate(5.65 6.65)"/>
</clipPath>
</defs>
</svg>
