<svg width="59" height="61" viewBox="0 0 59 61" fill="none" xmlns="http://www.w3.org/2000/svg">
<rect width="59" height="61" fill="white"/>
<path d="M42.4467 17.4541V46.4467H13.4541V49.7H41.8726C43.9777 49.7 45.7 47.9777 45.7 45.8726V17.4541H42.4467Z" fill="#BABABA"/>
<path d="M38.0452 38.2178V15.8274C38.0452 13.7223 36.3228 12 34.2178 12H11.8274C9.72233 12 8 13.7223 8 15.8274V38.2178C8 40.3228 9.72233 42.0452 11.8274 42.0452H34.2178C36.3228 42.0452 38.0452 40.3228 38.0452 38.2178ZM11.2533 38.7919V15.2533H34.7919V38.7919H11.2533Z" fill="#BABABA"/>
<path d="M24.6492 19.3678H21.3959V25.3959H15.3678V28.6492H21.3959V34.6774H24.6492V28.6492H30.6774V25.3959H24.6492V19.3678Z" fill="#BABABA"/>
</svg>
